<svg width="24" height="21" viewBox="0 0 24 21" fill="none" xmlns="http://www.w3.org/2000/svg">
<g filter="url(#filter0_d_4_423)">
<path fill-rule="evenodd" clip-rule="evenodd" d="M5 0C3.89543 0 3 0.89543 3 2V16C3 17.1046 3.89543 18 5 18H19C20.1046 18 21 17.1046 21 16V2C21 0.895431 20.1046 0 19 0H5ZM17.7273 7.66667C18.4273 7.66667 19 7.06667 19 6.33333C19 5.6 18.4273 5 17.7273 5C17.0273 5 16.4545 5.6 16.4545 6.33333C16.4545 6.45333 16.4673 6.56667 16.4991 6.67333L14.24 9.04667C14.1382 9.01333 14.0236 9 13.9091 9C13.7945 9 13.68 9.01333 13.5782 9.04667L11.9555 7.34667C11.9873 7.24 12 7.12 12 7C12 6.26667 11.4273 5.66667 10.7273 5.66667C10.0273 5.66667 9.45455 6.26667 9.45455 7C9.45455 7.12 9.46727 7.24 9.49909 7.34667L6.59727 10.38C6.49545 10.3467 6.38727 10.3333 6.27273 10.3333C5.57273 10.3333 5 10.9333 5 11.6667C5 12.4 5.57273 13 6.27273 13C6.97273 13 7.54545 12.4 7.54545 11.6667C7.54545 11.5467 7.53273 11.4333 7.50091 11.3267L10.3964 8.28667C10.4982 8.32 10.6127 8.33333 10.7273 8.33333C10.8418 8.33333 10.9564 8.32 11.0582 8.28667L12.6809 9.98667C12.6491 10.0933 12.6364 10.2133 12.6364 10.3333C12.6364 11.0667 13.2091 11.6667 13.9091 11.6667C14.6091 11.6667 15.1818 11.0667 15.1818 10.3333C15.1818 10.2133 15.1691 10.0933 15.1373 9.98667L17.4027 7.62C17.5045 7.65333 17.6127 7.66667 17.7273 7.66667Z" fill="#6E78E8"/>
</g>
<defs>
<filter id="filter0_d_4_423" x="-1" y="0" width="26" height="26" filterUnits="userSpaceOnUse" color-interpolation-filters="sRGB">
<feFlood flood-opacity="0" result="BackgroundImageFix"/>
<feColorMatrix in="SourceAlpha" type="matrix" values="0 0 0 0 0 0 0 0 0 0 0 0 0 0 0 0 0 0 127 0" result="hardAlpha"/>
<feOffset dy="4"/>
<feGaussianBlur stdDeviation="2"/>
<feComposite in2="hardAlpha" operator="out"/>
<feColorMatrix type="matrix" values="0 0 0 0 0 0 0 0 0 0 0 0 0 0 0 0 0 0 0.25 0"/>
<feBlend mode="normal" in2="BackgroundImageFix" result="effect1_dropShadow_4_423"/>
<feBlend mode="normal" in="SourceGraphic" in2="effect1_dropShadow_4_423" result="shape"/>
</filter>
</defs>
</svg>
