
<svg fill="#a6a6a6" xmlns="http://www.w3.org/2000/svg" width="485.219" height="485.22" style="enable-background:new 0 0 485.219 485.22" xml:space="preserve"><path d="m467.476 146.438-21.445 21.455L317.35 39.23l21.445-21.457c23.689-23.692 62.104-23.692 85.795 0l42.886 42.897c23.657 23.679 23.657 62.078 0 85.768zm-300.243 257.31c-5.922 5.922-5.922 15.513 0 21.436 5.925 5.955 15.521 5.955 21.443 0L424.59 189.335l-21.469-21.457-235.888 235.87zM60 296.54c-5.925 5.927-5.925 15.514 0 21.44 5.922 5.923 15.518 5.923 21.443 0L317.35 82.113 295.914 60.67 60 296.54zm278.767-193L102.881 339.421c-11.845 11.822-11.815 31.041 0 42.886 11.85 11.846 31.038 11.901 42.914-.032l235.886-235.837-42.914-42.898zM145.734 446.572c-7.253-7.262-10.749-16.465-12.05-25.948-3.083.476-6.188.919-9.36.919-16.202 0-31.419-6.333-42.881-17.795-11.462-11.491-17.77-26.687-17.77-42.887 0-2.954.443-5.833.859-8.703-9.803-1.335-18.864-5.629-25.972-12.737-.682-.677-.917-1.596-1.538-2.338L0 485.216l147.748-36.986c-.651-.593-1.388-1.037-2.014-1.658z"/></svg>

