<?xml version="1.0" standalone="no"?>
<!DOCTYPE svg PUBLIC "-//W3C//DTD SVG 20010904//EN"
 "http://www.w3.org/TR/2001/REC-SVG-20010904/DTD/svg10.dtd">
<svg version="1.0" xmlns="http://www.w3.org/2000/svg"
 width="700.000000pt" height="700.000000pt" viewBox="0 0 700.000000 700.000000"
 preserveAspectRatio="xMidYMid meet">
<metadata>
Created by potrace 1.14, written by Peter Selinger 2001-2017
</metadata>
<g transform="translate(0.000000,700.000000) scale(0.100000,-0.100000)"
fill="#000000" stroke="none">
<path d="M3611 6985 c-55 -16 -78 -27 -516 -250 -283 -144 -719 -366 -1250
-635 -187 -95 -443 -225 -570 -290 -126 -65 -387 -197 -580 -295 -192 -97
-351 -178 -353 -180 -1 -1 109 -1 245 0 l248 1 130 37 c72 20 236 66 365 103
129 36 249 69 265 74 68 18 271 74 430 120 94 26 222 62 285 80 63 17 169 47
235 65 349 98 456 128 625 175 102 28 217 60 255 71 245 71 889 251 915 255
13 3 25 6 26 7 2 2 -125 267 -184 386 -64 129 -187 234 -317 273 -59 17 -197
19 -254 3z"/>
<path d="M5379 6329 c-25 -4 -79 -17 -120 -28 -41 -12 -81 -24 -89 -26 -8 -2
-44 -13 -80 -24 -36 -10 -121 -36 -190 -56 -242 -72 -319 -95 -735 -220 -231
-69 -472 -141 -535 -160 -63 -19 -313 -93 -555 -166 -242 -72 -444 -132 -450
-134 -5 -1 -17 -4 -25 -7 -14 -5 -107 -33 -285 -86 -38 -11 -104 -31 -145 -43
-41 -12 -79 -24 -85 -25 -5 -1 -21 -6 -33 -11 -14 -5 788 -9 1986 -9 l2009 0
-14 55 c-7 31 -15 65 -18 76 -2 11 -20 82 -40 158 -19 77 -37 149 -39 160 -18
89 -64 233 -92 287 -91 174 -289 285 -465 259z"/>
<path d="M312 5114 c-154 -35 -274 -155 -302 -302 -8 -40 -10 -713 -8 -2287
l3 -2230 32 -66 c56 -113 140 -183 258 -214 53 -13 372 -15 3016 -15 2895 0
2958 1 3013 20 129 44 233 155 262 280 8 34 14 1129 6 1161 -3 15 -101 17
-1180 17 -648 -1 -1203 2 -1234 6 -209 25 -409 164 -505 351 -76 147 -78 171
-77 762 0 436 3 506 18 563 60 228 216 398 441 477 l80 28 1230 3 1231 2 -2
573 c-1 508 -3 577 -18 617 -47 126 -165 231 -290 257 -57 11 -5923 9 -5974
-3z"/>
<path d="M4139 3377 c-123 -42 -221 -143 -256 -267 -4 -14 -9 -245 -10 -514
-4 -532 -2 -559 53 -651 30 -52 108 -125 159 -149 99 -47 51 -46 1370 -43
l1240 2 59 24 c83 35 168 116 209 200 l32 66 2 505 c3 546 2 564 -50 653 -53
90 -144 157 -252 186 -28 7 -421 11 -1265 10 l-1225 0 -66 -22z m841 -580 c30
-15 54 -39 73 -69 26 -42 29 -56 31 -147 3 -117 -11 -171 -57 -218 -44 -47
-94 -60 -217 -58 -108 1 -138 10 -188 53 -46 40 -60 89 -60 202 0 139 24 197
101 237 71 36 245 36 317 0z"/>
</g>
</svg>
